<?xml version="1.0" standalone="no"?>
<!DOCTYPE svg PUBLIC "-//W3C//DTD SVG 20010904//EN"
 "http://www.w3.org/TR/2001/REC-SVG-20010904/DTD/svg10.dtd">
<svg version="1.0" xmlns="http://www.w3.org/2000/svg"
 width="260.000000pt" height="260.000000pt" viewBox="0 0 260.000000 260.000000"
 preserveAspectRatio="xMidYMid meet">
<metadata>
Created by potrace 1.14, written by Peter Selinger 2001-2017
</metadata>
<g transform="translate(0.000000,260.000000) scale(0.100000,-0.100000)"
fill="#000000" stroke="none">
<path d="M0 1300 l0 -1300 1300 0 1300 0 0 1300 0 1300 -1300 0 -1300 0 0
-1300z m1882 665 c36 -9 95 -31 130 -49 71 -36 72 -38 38 -129 l-21 -55 -64
33 c-92 46 -209 69 -315 62 -234 -16 -393 -148 -456 -378 -22 -80 -25 -271 -5
-349 47 -185 160 -317 318 -371 53 -19 89 -24 163 -23 103 1 150 10 248 50
l62 26 0 189 0 189 -155 0 -155 0 0 70 0 70 240 0 240 0 -2 -307 -3 -308 -86
-42 c-133 -67 -219 -86 -384 -87 -129 -1 -147 1 -229 28 -172 57 -300 167
-382 331 -57 115 -77 208 -76 355 0 148 20 241 78 359 92 187 261 313 472 351
73 14 268 5 344 -15z m-1198 -56 c3 -34 6 -349 6 -700 l0 -639 -90 0 -90 0 0
700 0 700 84 0 83 0 7 -61z"/>
</g>
</svg>
