<svg version="1.0" xmlns="http://www.w3.org/2000/svg" width="346.667" height="346.667" viewBox="0 0 260 260"><path d="M0 130v130h260V0H0v130zm188.2-66.5c3.6.9 9.5 3.1 13 4.9 7.1 3.6 7.2 3.8 3.8 12.9l-2.1 5.5-6.4-3.3c-9.2-4.6-20.9-6.9-31.5-6.2-23.4 1.6-39.3 14.8-45.6 37.8-2.2 8-2.5 27.1-.5 34.9 4.7 18.5 16 31.7 31.8 37.1 5.3 1.9 8.9 2.4 16.3 2.3 10.3-.1 15-1 24.8-5l6.2-2.6V144h-31v-14h48l-.2 30.7-.3 30.8-8.6 4.2c-13.3 6.7-21.9 8.6-38.4 8.7-12.9.1-14.7-.1-22.9-2.8-17.2-5.7-30-16.7-38.2-33.1-5.7-11.5-7.7-20.8-7.6-35.5 0-14.8 2-24.1 7.8-35.9 9.2-18.7 26.1-31.3 47.2-35.1 7.3-1.4 26.8-.5 34.4 1.5zM68.4 69.1c.3 3.4.6 34.9.6 70V203H51V63h16.7l.7 6.1z"/></svg>